<?xml version="1.0" encoding="UTF-8" standalone="no"?>
<svg
   height="1504"
   preserveAspectRatio="xMidYMid"
   width="2500"
   viewBox="0 0 256 153.6"
   version="1.1"
   id="svg1283"
   sodipodi:docname="tailwindcss.svg"
   inkscape:version="1.2 (dc2aedaf03, 2022-05-15)"
   xmlns:inkscape="http://www.inkscape.org/namespaces/inkscape"
   xmlns:sodipodi="http://sodipodi.sourceforge.net/DTD/sodipodi-0.dtd"
   xmlns="http://www.w3.org/2000/svg"
   xmlns:svg="http://www.w3.org/2000/svg">
  <defs
     id="defs1287" />
  <sodipodi:namedview
     id="namedview1285"
     pagecolor="#ffffff"
     bordercolor="#000000"
     borderopacity="0.25"
     inkscape:showpageshadow="2"
     inkscape:pageopacity="0.0"
     inkscape:pagecheckerboard="0"
     inkscape:deskcolor="#d1d1d1"
     showgrid="false"
     inkscape:zoom="0.51595745"
     inkscape:cx="1250.1031"
     inkscape:cy="752"
     inkscape:window-width="1920"
     inkscape:window-height="974"
     inkscape:window-x="-11"
     inkscape:window-y="-11"
     inkscape:window-maximized="1"
     inkscape:current-layer="svg1283" />
  <linearGradient
     id="a"
     x1="-2.778%"
     y1="32%"
     y2="67.556%">
    <stop
       offset="0"
       stop-color="#2298bd"
       id="stop1276"
       style="stop-color:#109383;stop-opacity:1;" />
    <stop
       offset="1"
       stop-color="#0ed7b5"
       id="stop1278" />
  </linearGradient>
  <path
     d="M128 0C93.867 0 72.533 17.067 64 51.2 76.8 34.133 91.733 27.733 108.8 32c9.737 2.434 16.697 9.499 24.401 17.318C145.751 62.057 160.275 76.8 192 76.8c34.133 0 55.467-17.067 64-51.2-12.8 17.067-27.733 23.467-44.8 19.2-9.737-2.434-16.697-9.499-24.401-17.318C174.249 14.743 159.725 0 128 0zM64 76.8C29.867 76.8 8.533 93.867 0 128c12.8-17.067 27.733-23.467 44.8-19.2 9.737 2.434 16.697 9.499 24.401 17.318C81.751 138.857 96.275 153.6 128 153.6c34.133 0 55.467-17.067 64-51.2-12.8 17.067-27.733 23.467-44.8 19.2-9.737-2.434-16.697-9.499-24.401-17.318C110.249 91.543 95.725 76.8 64 76.8z"
     fill="url(#a)"
     id="path1281"
     style="fill:#109383;fill-opacity:1" />
</svg>
